# xmcd
#
# Track frame offsets:
# 151
# 1544
# 15541
# 19330
# 27476
# 31609
# 46923
# 50444
# 62815
# 64437
# 77603
# 80317
# 93338
# 101825
# 104633
# 113755
# 123495
# 126350
# 137093
# 153405
# 156671
# 177725
# 190569
# 193677
# 206981
# 210765
# 222384
# 225328
# 239528
# 244140
# 256036
# 264785
# 281481
# 294055
# 303023
# 312181
# 322792
# 333463
#
# Disc length: 4468 seconds
#
#
# Revision: 0
# Processed by: cddbd v1.5.2PL0 Copyright (c) Steve Scherf et al.
# Submitted via: Nero 7, 2, 3, 2 
#
DISCID=09117226
DTITLE=Jerry Lee Lewis - The Million Dollar Quartett
DYEAR=2007
DGENRE=Country
TTITLE0=The Million Dollar Quartett
TTITLE1=The Million Dollar Quartett
TTITLE2=The Million Dollar Quartett
TTITLE3=The Million Dollar Quartett
TTITLE4=The Million Dollar Quartett
TTITLE5=The Million Dollar Quartett
TTITLE6=The Million Dollar Quartett
TTITLE7=The Million Dollar Quartett
TTITLE8=The Million Dollar Quartett
TTITLE9=The Million Dollar Quartett
TTITLE10=The Million Dollar Quartett
TTITLE11=The Million Dollar Quartett
TTITLE12=The Million Dollar Quartett
TTITLE13=The Million Dollar Quartett
TTITLE14=The Million Dollar Quartett
TTITLE15=The Million Dollar Quartett
TTITLE16=The Million Dollar Quartett
TTITLE17=The Million Dollar Quartett
TTITLE18=The Million Dollar Quartett
TTITLE19=The Million Dollar Quartett
TTITLE20=The Million Dollar Quartett
TTITLE21=The Million Dollar Quartett
TTITLE22=The Million Dollar Quartett
TTITLE23=The Million Dollar Quartett
TTITLE24=The Million Dollar Quartett
TTITLE25=The Million Dollar Quartett
TTITLE26=The Million Dollar Quartett
TTITLE27=The Million Dollar Quartett
TTITLE28=The Million Dollar Quartett
TTITLE29=The Million Dollar Quartett
TTITLE30=The Million Dollar Quartett
TTITLE31=The Million Dollar Quartett
TTITLE32=The Million Dollar Quartett
TTITLE33=The Million Dollar Quartett
TTITLE34=The Million Dollar Quartett
TTITLE35=The Million Dollar Quartett
TTITLE36=The Million Dollar Quartett
TTITLE37=The Million Dollar Quartett
EXTD=
EXTT0=
EXTT1=
EXTT2=
EXTT3=
EXTT4=
EXTT5=
EXTT6=
EXTT7=
EXTT8=
EXTT9=
EXTT10=
EXTT11=
EXTT12=
EXTT13=
EXTT14=
EXTT15=
EXTT16=
EXTT17=
EXTT18=
EXTT19=
EXTT20=
EXTT21=
EXTT22=
EXTT23=
EXTT24=
EXTT25=
EXTT26=
EXTT27=
EXTT28=
EXTT29=
EXTT30=
EXTT31=
EXTT32=
EXTT33=
EXTT34=
EXTT35=
EXTT36=
EXTT37=
PLAYORDER=
